<?xml version="1.0" standalone="no"?><!DOCTYPE svg PUBLIC "-//W3C//DTD SVG 1.1//EN" "http://www.w3.org/Graphics/SVG/1.1/DTD/svg11.dtd"><svg class="icon" width="200px" height="200.00px" viewBox="0 0 1024 1024" version="1.1" xmlns="http://www.w3.org/2000/svg"><path fill="#333333" d="M511.2269 64.4608c-246.1655 0-446.4425 200.278-446.4425 446.4425 0 246.1655 200.277 446.4435 446.4425 446.4435s446.4425-200.278 446.4425-446.4435C957.6694 264.7388 757.3914 64.4608 511.2269 64.4608zM511.2269 901.5409c-215.4015 0-390.6376-175.2361-390.6376-390.6376 0-215.4015 175.2361-390.6365 390.6376-390.6365 215.4015 0 390.6365 175.2351 390.6365 390.6365C901.8634 726.3048 726.6273 901.5409 511.2269 901.5409zM705.3455 459.649l-238.807-129.622c-11.3347-6.186-23.5151-9.4556-35.2328-9.4556-34.5508 0-59.5927 26.5134-59.5927 63.0272v254.61248c0 36.5117 25.0419 62.9975 59.5927 63.0262 11.7166 0 23.8971-3.2696 35.1519-9.3993l240.087-129.7326c21.718-11.8262 34.1985-30.2735 34.1985-50.5743C740.7432 490.8216 727.852 471.9114 705.3455 459.649zM679.9227 513.0568 439.8356 642.7884c-4.1974 2.3183-7.168 2.6429-8.5299 2.6429-1.5247 0-3.7878 0-3.7878-7.2212V383.59859199999994c0-7.2212 2.263-7.2212 3.7878-7.2212 1.3629 0 4.3325 0.3543 8.5555 2.6429l238.8357 129.6507c1.7172 0.9533 3.0515 1.8524 4.0878 2.6429C682.0219 511.8587 681.0665 512.4577 679.9227 513.0568z" /></svg>