<?xml version="1.0" standalone="no"?><!DOCTYPE svg PUBLIC "-//W3C//DTD SVG 1.1//EN" "http://www.w3.org/Graphics/SVG/1.1/DTD/svg11.dtd"><svg class="icon" width="200px" height="200.00px" viewBox="0 0 1024 1024" version="1.1" xmlns="http://www.w3.org/2000/svg"><path fill="#22d59c" d="M301.4656 370.2784H182.4768c-28.2112 0-51.2 22.9888-51.2 51.2v435.456c0 28.2112 22.9888 51.2 51.2 51.2h118.9888c28.2112 0 51.2-22.9888 51.2-51.2V421.4784c0-28.2112-22.9376-51.2-51.2-51.2zM583.68 111.872H450.048c-28.2112 0-51.2 22.9888-51.2 51.2v693.9136c0 28.2112 22.9888 51.2 51.2 51.2H583.68c28.2112 0 51.2-22.9888 51.2-51.2V163.072c0-28.2624-22.9376-51.2-51.2-51.2zM843.9808 588.4928h-104.3456c-28.2112 0-51.2 22.9888-51.2 51.2v217.2416c0 28.2112 22.9888 51.2 51.2 51.2h104.3456c28.2112 0 51.2-22.9888 51.2-51.2v-217.2416c0-28.2112-22.9888-51.2-51.2-51.2z"  /></svg>