<?xml version="1.0" standalone="no"?><!DOCTYPE svg PUBLIC "-//W3C//DTD SVG 1.1//EN" "http://www.w3.org/Graphics/SVG/1.1/DTD/svg11.dtd"><svg class="icon" width="200px" height="200.00px" viewBox="0 0 1024 1024" version="1.1" xmlns="http://www.w3.org/2000/svg"><path fill="#ffffff" d="M940.054272 428.298279a113.315488 113.315488 0 0 0-31.082218-24.474187L241.07148 17.131931a124.818356 124.818356 0 0 0-126.042065 0A124.328872 124.328872 0 0 0 76.360199 51.395793a126.042065 126.042065 0 0 0-24.474188 75.135756v771.181644a125.307839 125.307839 0 0 0 63.143404 109.399618 126.042065 126.042065 0 0 0 126.042065 0L908.48257 621.399618a124.573614 124.573614 0 0 0 63.143403-109.399618 122.370937 122.370937 0 0 0-31.571701-83.701721zM884.008382 579.059273L216.597293 964.527725A77.338432 77.338432 0 0 1 100.834386 897.713193V126.531549a76.604207 76.604207 0 0 1 38.669216-67.059274 75.869981 75.869981 0 0 1 77.093691 0L884.008382 445.185468a73.422562 73.422562 0 0 1 24.474188 24.474188 73.422562 73.422562 0 0 1 13.460803 43.319311 76.604207 76.604207 0 0 1-37.934991 66.080306z"  /><path fill="#ffffff" d="M923.167082 512a76.604207 76.604207 0 0 1-39.1587 67.059273L216.597293 964.527725A77.338432 77.338432 0 0 1 100.834386 897.713193v-56.045889a101.323136 101.323136 0 0 0 128 21.782027l667.900574-385.713193a81.743786 81.743786 0 0 0 12.971319-9.05545 73.422562 73.422562 0 0 1 13.460803 43.319312z"  /></svg>